<svg width="180" height="153" viewBox="0 0 180 153" fill="none" xmlns="http://www.w3.org/2000/svg">
<ellipse opacity="0.1" cx="90" cy="147.6" rx="90" ry="5.4" fill="black"/>
<path fill-rule="evenodd" clip-rule="evenodd" d="M128.927 2.45155C130.478 0.340821 133.446 -0.113245 135.557 1.43736C137.668 2.98797 138.122 5.95607 136.571 8.0668L130.795 15.929C129.245 18.0397 126.277 18.4938 124.166 16.9431C122.055 15.3925 121.601 12.4244 123.152 10.3137L128.927 2.45155ZM133.425 4.33862C132.917 3.96513 132.202 4.0745 131.829 4.58291L126.053 12.4451C125.679 12.9535 125.789 13.6684 126.297 14.0419C126.806 14.4154 127.52 14.306 127.894 13.7976L133.67 5.93544C134.043 5.42704 133.934 4.71211 133.425 4.33862ZM43.4085 49.0359C43.4085 25.9805 62.0985 7.29048 85.1539 7.29048C108.209 7.29048 126.899 25.9805 126.899 49.0359C126.899 72.0913 108.209 90.7813 85.1539 90.7813C62.0985 90.7813 43.4085 72.0913 43.4085 49.0359ZM85.1539 3.69048C60.1103 3.69048 39.8085 23.9923 39.8085 49.0359C39.8085 74.0795 60.1103 94.3813 85.1539 94.3813C93.3867 94.3813 101.107 92.1873 107.762 88.3521L113.648 94.2378C113.48 96.7392 114.351 99.2974 116.263 101.209L134.425 119.371C137.939 122.885 143.638 122.885 147.153 119.371L151.069 115.455C154.583 111.94 154.583 106.241 151.069 102.727L132.907 84.5654C130.995 82.653 128.436 81.7812 125.934 81.9499L120.91 76.9261C126.919 69.2339 130.499 59.553 130.499 49.0359C130.499 23.9923 110.197 3.69048 85.1539 3.69048ZM122.032 83.139L118.576 79.6825C116.274 82.1917 113.693 84.4408 110.882 86.3809L114.836 90.3353C115.221 89.6727 115.696 89.0486 116.263 88.4814L120.179 84.5654C120.746 83.9985 121.37 83.5231 122.032 83.139ZM105.966 43.586C106.855 43.1414 107.216 42.0602 106.771 41.171C106.326 40.2819 105.245 39.9215 104.356 40.3661L90.2332 47.4275C89.6233 47.7324 89.2381 48.3557 89.2381 49.0375C89.2381 49.7192 89.6233 50.3425 90.2332 50.6474L104.356 57.7088C105.245 58.1534 106.326 57.793 106.771 56.9039C107.216 56.0147 106.855 54.9335 105.966 54.4889L95.0631 49.0375L105.966 43.586ZM63.535 41.171C63.0904 42.0602 63.4509 43.1414 64.34 43.586L75.2429 49.0375L64.34 54.4889C63.4509 54.9335 63.0904 56.0147 63.535 56.9039C63.9796 57.793 65.0608 58.1534 65.95 57.7088L80.0728 50.6474C80.6826 50.3425 81.0678 49.7192 81.0678 49.0375C81.0678 48.3557 80.6826 47.7324 80.0728 47.4275L65.95 40.3661C65.0608 39.9215 63.9796 40.2819 63.535 41.171ZM55.177 49.0354C55.177 32.4799 68.5979 19.059 85.1534 19.059C101.709 19.059 115.13 32.4799 115.13 49.0354C115.13 65.5909 101.709 79.0118 85.1534 79.0118C68.5979 79.0118 55.177 65.5909 55.177 49.0354ZM85.1534 15.459C66.6097 15.459 51.577 30.4917 51.577 49.0354C51.577 67.5791 66.6097 82.6118 85.1534 82.6118C103.697 82.6118 118.73 67.5791 118.73 49.0354C118.73 30.4917 103.697 15.459 85.1534 15.459ZM148.918 19.8854C148.122 17.3903 145.454 16.0131 142.958 16.8093L133.664 19.775C131.169 20.5711 129.792 23.2393 130.588 25.7344C131.384 28.2295 134.053 29.6068 136.548 28.8106L145.842 25.8449C148.337 25.0487 149.714 22.3806 148.918 19.8854ZM144.053 20.2389C144.654 20.0471 145.296 20.3788 145.488 20.9798C145.68 21.5808 145.348 22.2235 144.747 22.4153L135.453 25.381C134.852 25.5728 134.21 25.241 134.018 24.64C133.826 24.039 134.158 23.3964 134.759 23.2046L144.053 20.2389ZM27.5303 75.8245C25.0158 76.5572 23.5714 79.1896 24.3041 81.7041C25.0368 84.2186 27.6692 85.663 30.1837 84.9303L39.5499 82.201C42.0643 81.4683 43.5088 78.8359 42.776 76.3214C42.0433 73.8069 39.4109 72.3625 36.8964 73.0952L27.5303 75.8245ZM27.7604 80.697C27.5839 80.0913 27.9318 79.4572 28.5375 79.2807L37.9036 76.5514C38.5092 76.375 39.1433 76.7229 39.3198 77.3285C39.4963 77.9342 39.1484 78.5682 38.5427 78.7447L29.1766 81.474C28.5709 81.6505 27.9369 81.3026 27.7604 80.697ZM37.0523 100.582C34.9815 98.9789 34.6028 96.0003 36.2063 93.9295L42.1794 86.2162C43.783 84.1454 46.7617 83.7667 48.8325 85.3703C50.9032 86.9738 51.282 89.9525 49.6784 92.0233L43.7053 99.7366C42.1017 101.807 39.123 102.186 37.0523 100.582ZM39.0527 96.1337C38.6664 96.6324 38.7576 97.3499 39.2564 97.7362C39.7552 98.1224 40.4727 98.0312 40.8589 97.5324L46.832 89.8191C47.2183 89.3203 47.1271 88.6028 46.6283 88.2166C46.1295 87.8303 45.412 87.9216 45.0258 88.4203L39.0527 96.1337Z" fill="black"/>
</svg>
