<svg width="750" height="229" viewBox="0 0 750 229" fill="none" xmlns="http://www.w3.org/2000/svg">
<path d="M61.8666 188.17C49.8869 188.17 39.1907 185.257 29.7781 179.43C20.3655 173.603 13.0065 165.548 7.70124 155.266C2.56708 144.983 0 133.33 0 120.305C0 107.281 2.65265 95.713 7.95794 85.6019C13.2632 75.3194 20.6222 67.2647 30.0348 61.438C39.6186 55.4398 50.4003 52.4408 62.38 52.4408C72.1349 52.4408 80.6063 54.3259 87.7941 58.0962C95.153 61.695 100.972 66.8363 105.25 73.5199V0H136.055V185.085H108.331L105.25 166.32C102.512 170.09 99.1748 173.689 95.2386 177.116C91.3024 180.372 86.5961 183.029 81.1197 185.085C75.6432 187.142 69.2255 188.17 61.8666 188.17ZM68.2843 161.435C75.6432 161.435 82.1465 159.722 87.7941 156.294C93.4417 152.695 97.8057 147.811 100.886 141.642C103.967 135.472 105.507 128.36 105.507 120.305C105.507 112.251 103.967 105.139 100.886 98.9691C97.8057 92.7996 93.4417 88.0011 87.7941 84.5736C82.1465 81.1461 75.6432 79.4324 68.2843 79.4324C61.2676 79.4324 54.9355 81.1461 49.2879 84.5736C43.6403 88.0011 39.1907 92.7996 35.9391 98.9691C32.8586 105.139 31.3184 112.251 31.3184 120.305C31.3184 128.36 32.8586 135.472 35.9391 141.642C39.1907 147.811 43.6403 152.695 49.2879 156.294C54.9355 159.722 61.2676 161.435 68.2843 161.435Z" fill="black"/>
<path d="M195.222 188.17C184.783 188.17 175.798 186.113 168.268 182C160.909 177.716 155.261 171.375 151.325 162.978C147.389 154.409 145.421 143.869 145.421 131.359V55.5255H176.226V128.274C176.226 139.414 178.536 147.897 183.157 153.723C187.949 159.379 195.137 162.207 204.72 162.207C210.881 162.207 216.358 160.75 221.15 157.836C226.113 154.923 229.963 150.724 232.702 145.24C235.611 139.585 237.066 132.73 237.066 124.675V55.5255H267.871V185.085H240.66L238.349 163.492C234.413 171.032 228.68 177.031 221.15 181.486C213.791 185.942 205.148 188.17 195.222 188.17Z" fill="black"/>
<path d="M293.16 185.085V41.3871C293.16 31.4473 294.786 23.4784 298.038 17.4803C301.461 11.3108 306.338 6.855 312.67 4.113C319.002 1.371 326.532 0 335.26 0H350.663V26.2204H339.881C334.234 26.2204 330.126 27.42 327.559 29.8193C325.163 32.0471 323.965 35.9888 323.965 41.6442V185.085H293.16ZM274.677 81.4889V55.5255H353.23V81.4889H274.677Z" fill="black"/>
<path d="M425.7 185.085C416.972 185.085 409.356 183.714 402.853 180.972C396.521 178.23 391.558 173.689 387.964 167.348C384.37 161.007 382.573 152.438 382.573 141.642V81.4889H360.496V55.5255H382.573L386.167 21.3362H413.378V55.5255H448.547V81.4889H413.378V141.642C413.378 148.154 414.747 152.695 417.485 155.266C420.394 157.665 425.186 158.865 431.861 158.865H447.777V185.085H425.7Z" fill="black"/>
<path d="M468.287 185.085V0H479.839V185.085H468.287Z" fill="black"/>
<path d="M544.67 188.17C534.915 188.17 526.7 186.285 520.026 182.515C513.352 178.744 508.303 173.86 504.88 167.862C501.457 161.692 499.746 155.094 499.746 148.068C499.746 138.642 501.885 130.931 506.164 124.932C510.442 118.934 516.432 114.479 524.133 111.565C532.006 108.48 541.076 106.938 551.344 106.938H590.364C590.364 97.6838 588.995 89.8006 586.257 83.2883C583.689 76.7761 579.668 71.7205 574.191 68.1216C568.715 64.5227 561.527 62.7233 552.628 62.7233C542.188 62.7233 533.546 65.2082 526.7 70.1781C520.026 75.148 515.747 82.6885 513.865 92.7996H502.056C503.254 83.7167 506.249 76.2619 511.041 70.4352C516.004 64.437 522.08 59.9813 529.267 57.0679C536.455 53.9832 544.242 52.4408 552.628 52.4408C564.436 52.4408 573.935 54.84 581.122 59.6385C588.31 64.2657 593.53 70.6066 596.782 78.6612C600.204 86.5444 601.916 95.5416 601.916 105.653V185.085H591.647L590.364 159.122C588.995 161.864 587.112 164.949 584.716 168.376C582.32 171.804 579.325 174.974 575.731 177.887C572.138 180.801 567.774 183.2 562.639 185.085C557.676 187.142 551.687 188.17 544.67 188.17ZM545.953 177.63C553.312 177.63 559.73 176.259 565.206 173.517C570.683 170.604 575.304 166.834 579.069 162.207C582.834 157.408 585.658 152.267 587.54 146.783C589.423 141.299 590.364 135.9 590.364 130.588V116.964H552.114C542.017 116.964 534.059 118.335 528.241 121.077C522.422 123.647 518.229 127.246 515.662 131.873C513.266 136.5 512.068 141.813 512.068 147.811C512.068 153.295 513.352 158.351 515.919 162.978C518.486 167.433 522.336 171.032 527.47 173.774C532.605 176.345 538.766 177.63 545.953 177.63Z" fill="black"/>
<path d="M688.647 188.17C680.603 188.17 673.159 186.713 666.313 183.8C659.468 180.715 653.563 176.602 648.6 171.461C643.637 166.148 639.787 160.15 637.049 153.466L635.508 185.085H625.24V0.771193H636.792V88.4296C640.728 77.8043 647.146 69.1499 656.045 62.4662C664.944 55.7826 675.811 52.4408 688.647 52.4408C701.311 52.4408 712.178 55.4398 721.249 61.438C730.49 67.2647 737.592 75.3194 742.555 85.6019C747.518 95.713 750 107.367 750 120.562C750 133.587 747.518 145.24 742.555 155.523C737.592 165.634 730.49 173.603 721.249 179.43C712.178 185.257 701.311 188.17 688.647 188.17ZM688.133 177.63C697.888 177.63 706.445 175.317 713.804 170.69C721.334 165.891 727.239 159.207 731.517 150.639C735.796 142.07 737.935 131.959 737.935 120.305C737.935 108.652 735.796 98.5407 731.517 89.9719C727.239 81.2318 721.334 74.5482 713.804 69.9211C706.445 65.2939 697.888 62.9804 688.133 62.9804C678.379 62.9804 669.736 65.3796 662.206 70.1781C654.676 74.9766 648.771 81.7459 644.493 90.4861C640.386 99.0548 638.332 108.995 638.332 120.305C638.332 131.616 640.386 141.556 644.493 150.125C648.771 158.693 654.676 165.463 662.206 170.433C669.736 175.231 678.379 177.63 688.133 177.63Z" fill="black"/>
<path d="M480.258 201.152C480.258 204.701 477.384 207.578 473.84 207.578C470.295 207.578 467.422 204.701 467.422 201.152C467.422 197.602 470.295 194.725 473.84 194.725C477.384 194.725 480.258 197.602 480.258 201.152Z" fill="black"/>
<path d="M480.258 222.573C480.258 226.123 477.384 229 473.84 229C470.295 229 467.422 226.123 467.422 222.573C467.422 219.024 470.295 216.147 473.84 216.147C477.384 216.147 480.258 219.024 480.258 222.573Z" fill="black"/>
</svg>
